<svg version="1.1" viewBox="0 0 24 24" xmlns="http://www.w3.org/2000/svg">
    <view id="app" viewBox="0 0 24 24" />
    <view id="fire" viewBox="0 36 24 24" />
    <view id="water" viewBox="0 72 24 24" />
    <view id="leaf" viewBox="0 108 24 24" />
    <view id="electric" viewBox="0 144 24 24" />
    <g fill="none" stroke="#1a1a1a" stroke-linecap="round" stroke-linejoin="round" stroke-width="2">
        <path
            d="m14.981 58.999c7.9291 0 8.9202-15.006-2.6271-21.988 0 3.9941 0 6.9897-2.0683 8.9868-2.0683-0.99853-2.09-2.729-3.1024-3.9941-6.2047 4.9926-5.388 16.996 1.8509 16.996 0-1.9971 0.9912-5.002 2.9735-6.0024 1.6359 1.0097 2.9734 4.0053 2.9734 6.0024z"
            style="paint-order:stroke fill markers" />
        <path d="m17.001 87.011c0 3-2 4-5 4m-0.01 4c-13.795 0-10.056-15.035 0.066-22 10.003 6.9654 13.729 22-0.066 22z"
            style="paint-order:stroke fill markers" />
        <path d="m12.001 153.01v-8l-9 13 9 1v8l9-13z" style="paint-order:stroke fill markers" />
        <path
            d="m2.0006 131.01c0-4 5.9731-11 10.951-13m-8.193 8.1366c-8.7306-7.1366 4.211-17.137 17.153-17.137 0 13-8.8779 23.9-17.153 17.137z"
            style="paint-order:stroke fill markers" />
        <path d="m14 14h9v9h-9zm-13 0h9v9h-9zm13-13h9v9h-9zm-13 0h9v9h-9z" />
    </g>
</svg>